<svg width="70" height="70" viewBox="0 0 70 70" fill="none" xmlns="http://www.w3.org/2000/svg">
<g filter="url(#filter0_i_18_127)">
<path d="M56.3872 32.8125C45.8019 32.8125 37.1875 22.9994 37.1875 10.9375C37.1875 10.3573 36.957 9.80094 36.5468 9.3907C36.1365 8.98047 35.5801 8.75 35 8.75C34.4198 8.75 33.8634 8.98047 33.4532 9.3907C33.0429 9.80094 32.8125 10.3573 32.8125 10.9375C32.8125 22.9994 24.2003 32.8125 13.6128 32.8125C13.0326 32.8125 12.4762 33.043 12.066 33.4532C11.6558 33.8634 11.4253 34.4198 11.4253 35C11.4253 35.5802 11.6558 36.1366 12.066 36.5468C12.4762 36.957 13.0326 37.1875 13.6128 37.1875C24.2003 37.1875 32.8125 47.0006 32.8125 59.0625C32.8125 59.6427 33.0429 60.1991 33.4532 60.6093C33.8634 61.0195 34.4198 61.25 35 61.25C35.5801 61.25 36.1365 61.0195 36.5468 60.6093C36.957 60.1991 37.1875 59.6427 37.1875 59.0625C37.1875 47.0006 45.8019 37.1875 56.3872 37.1875C56.9673 37.1875 57.5237 36.957 57.934 36.5468C58.3442 36.1366 58.5747 35.5802 58.5747 35C58.5747 34.4198 58.3442 33.8634 57.934 33.4532C57.5237 33.043 56.9673 32.8125 56.3872 32.8125ZM35 48.09C32.7281 42.4125 28.4637 37.7584 23.0059 35C28.4637 32.2416 32.7281 27.5875 35 21.91C37.2718 27.5875 41.5363 32.2416 46.994 35C41.5363 37.7584 37.2718 42.4125 35 48.09ZM56.234 53.1409C56.443 53.3427 56.6096 53.5841 56.7243 53.851C56.8389 54.1179 56.8993 54.4049 56.9018 54.6954C56.9043 54.9858 56.849 55.2739 56.739 55.5427C56.629 55.8115 56.4665 56.0558 56.2612 56.2612C56.0558 56.4666 55.8115 56.629 55.5427 56.739C55.2739 56.849 54.9858 56.9043 54.6954 56.9018C54.4049 56.8993 54.1179 56.8389 53.851 56.7243C53.5841 56.6096 53.3427 56.443 53.1409 56.2341L46.5784 49.6716C46.1799 49.259 45.9595 48.7064 45.9644 48.1329C45.9694 47.5593 46.1995 47.0107 46.6051 46.6051C47.0106 46.1995 47.5593 45.9694 48.1329 45.9645C48.7064 45.9595 49.259 46.18 49.6715 46.5784L56.234 53.1409ZM23.4215 46.5784C23.8316 46.9887 24.062 47.545 24.062 48.125C24.062 48.705 23.8316 49.2613 23.4215 49.6716L16.859 56.2341C16.4465 56.6325 15.8939 56.853 15.3204 56.848C14.7468 56.8431 14.1981 56.613 13.7926 56.2074C13.387 55.8018 13.1569 55.2532 13.1519 54.6796C13.147 54.1061 13.3674 53.5535 13.7659 53.1409L20.3284 46.5784C20.7386 46.1683 21.2949 45.938 21.875 45.938C22.455 45.938 23.0113 46.1683 23.4215 46.5784ZM13.7659 16.8591C13.3674 16.4465 13.147 15.8939 13.1519 15.3204C13.1569 14.7468 13.387 14.1982 13.7926 13.7926C14.1981 13.387 14.7468 13.1569 15.3204 13.152C15.8939 13.147 16.4465 13.3675 16.859 13.7659L23.4215 20.3284C23.6305 20.5302 23.7971 20.7716 23.9118 21.0385C24.0264 21.3054 24.0868 21.5924 24.0893 21.8829C24.0918 22.1733 24.0365 22.4614 23.9265 22.7302C23.8165 22.999 23.654 23.2433 23.4487 23.4487C23.2433 23.6541 22.999 23.8165 22.7302 23.9265C22.4614 24.0365 22.1733 24.0918 21.8829 24.0893C21.5924 24.0868 21.3054 24.0264 21.0385 23.9118C20.7716 23.7971 20.5302 23.6305 20.3284 23.4216L13.7659 16.8591ZM48.125 24.0625C47.6924 24.0624 47.2696 23.9341 46.9099 23.6937C46.5503 23.4533 46.27 23.1117 46.1044 22.7121C45.9389 22.3124 45.8956 21.8726 45.98 21.4484C46.0643 21.0241 46.2726 20.6344 46.5784 20.3284L53.1409 13.7659C53.5535 13.3675 54.1061 13.147 54.6796 13.152C55.2532 13.1569 55.8018 13.387 56.2074 13.7926C56.613 14.1982 56.843 14.7468 56.848 15.3204C56.853 15.8939 56.6325 16.4465 56.234 16.8591L49.6715 23.4216C49.2614 23.8318 48.7051 24.0624 48.125 24.0625Z" fill="#53AA1C"/>
</g>
<defs>
<filter id="filter0_i_18_127" x="0" y="0" width="70" height="74" filterUnits="userSpaceOnUse" color-interpolation-filters="sRGB">
<feFlood flood-opacity="0" result="BackgroundImageFix"/>
<feBlend mode="normal" in="SourceGraphic" in2="BackgroundImageFix" result="shape"/>
<feColorMatrix in="SourceAlpha" type="matrix" values="0 0 0 0 0 0 0 0 0 0 0 0 0 0 0 0 0 0 127 0" result="hardAlpha"/>
<feOffset dy="4"/>
<feGaussianBlur stdDeviation="2"/>
<feComposite in2="hardAlpha" operator="arithmetic" k2="-1" k3="1"/>
<feColorMatrix type="matrix" values="0 0 0 0 0 0 0 0 0 0 0 0 0 0 0 0 0 0 0.25 0"/>
<feBlend mode="normal" in2="shape" result="effect1_innerShadow_18_127"/>
</filter>
</defs>
</svg>
